<svg width="32" height="32" viewBox="0 0 32 32" fill="none" xmlns="http://www.w3.org/2000/svg">
<g clip-path="url(#clip0_5558_25493)">
<path d="M16 0C7.15681 0 0 7.156 0 16C0 24.8431 7.156 32 16 32C24.8432 32 32 24.844 32 16C32 7.15694 24.844 0 16 0ZM16 29.7674C8.40863 29.7674 2.23256 23.5914 2.23256 16C2.23256 8.40856 8.40863 2.23256 16 2.23256C23.5914 2.23256 29.7674 8.40856 29.7674 16C29.7674 23.5914 23.5914 29.7674 16 29.7674Z" fill="white"/>
<path d="M16.0006 13.3374C15.0528 13.3374 14.3789 13.7377 14.3789 14.3273V22.3515C14.3789 22.857 15.0528 23.3623 16.0006 23.3623C16.9062 23.3623 17.6433 22.857 17.6433 22.3515V14.3272C17.6433 13.7376 16.9062 13.3374 16.0006 13.3374Z" fill="white"/>
<path d="M16.0004 8.38818C15.0316 8.38818 14.2734 9.08318 14.2734 9.8835C14.2734 10.6839 15.0316 11.3999 16.0004 11.3999C16.9481 11.3999 17.7064 10.6839 17.7064 9.8835C17.7064 9.08318 16.9481 8.38818 16.0004 8.38818Z" fill="white"/>
</g>
<defs>
<clipPath id="clip0_5558_25493">
<rect width="32" height="32" fill="white"/>
</clipPath>
</defs>
</svg>
