<svg width="264" height="33" viewBox="0 0 264 33" fill="none" xmlns="http://www.w3.org/2000/svg">
<path d="M264 0H137.899V33H264V0Z" fill="#BD1822"/>
<path d="M207.783 23.9086H215.771V27.8841H207.783C203.981 27.8841 201.198 27.0367 199.441 25.3499C197.683 23.6551 196.801 21.0497 196.801 17.5176V5.10799H200.61V17.5097C200.61 19.7271 201.168 21.3427 202.292 22.3643C203.416 23.3859 205.241 23.9006 207.783 23.9006V23.9086ZM156.642 5.90784C155.353 6.43844 154.229 7.19078 153.278 8.16486C152.328 9.13895 151.589 10.311 151.061 11.689C150.533 13.067 150.261 14.5954 150.261 16.2585C150.261 17.9215 150.525 19.442 151.061 20.8596C151.589 22.2772 152.328 23.5047 153.278 24.5421C154.229 25.5796 155.353 26.3873 156.642 26.9892C157.932 27.5832 159.335 27.8841 160.859 27.8841H168.786V23.9086H160.859C159.878 23.9086 158.973 23.7185 158.144 23.3463C157.314 22.9741 156.597 22.4514 155.994 21.7941C155.39 21.1368 154.923 20.3449 154.583 19.4262C154.244 18.5076 154.07 17.5176 154.07 16.4485C154.07 15.3794 154.244 14.3736 154.583 13.4708C154.923 12.568 155.39 11.7999 155.994 11.1505C156.597 10.5011 157.314 9.99424 158.144 9.62995C158.973 9.26566 159.878 9.08351 160.859 9.08351H168.786V5.10799H160.859C159.335 5.10799 157.932 5.37725 156.642 5.90784ZM192.169 11.7365C192.69 13.1065 192.946 14.6112 192.946 16.2664C192.946 17.9215 192.682 19.45 192.154 20.8675C191.626 22.2851 190.88 23.5126 189.937 24.55C188.986 25.5875 187.862 26.3952 186.557 26.9971C185.26 27.5911 183.827 27.892 182.266 27.892H181.632C180.108 27.892 178.705 27.5911 177.416 26.9971C176.126 26.4032 175.002 25.5875 174.051 24.55C173.101 23.5126 172.362 22.293 171.834 20.8675C171.306 19.45 171.034 17.9136 171.034 16.2664C171.034 14.6191 171.298 13.0749 171.834 11.6969C172.362 10.3189 173.101 9.14687 174.051 8.17278C175.002 7.1987 176.126 6.44636 177.416 5.91576C178.705 5.38517 180.108 5.11591 181.632 5.11591H182.266C183.85 5.11591 185.29 5.38517 186.603 5.9316C187.915 6.47804 189.039 7.2383 189.982 8.2203C190.925 9.2023 191.649 10.3744 192.177 11.7444L192.169 11.7365ZM189.137 16.4485C189.137 15.3873 188.971 14.3974 188.624 13.4867C188.277 12.576 187.81 11.7999 187.199 11.1505C186.588 10.5011 185.864 9.99424 185.019 9.62995C184.174 9.26566 183.261 9.08351 182.258 9.08351H181.624C180.644 9.08351 179.739 9.26566 178.909 9.62995C178.079 9.99424 177.363 10.5011 176.759 11.1505C176.156 11.7999 175.688 12.568 175.349 13.4708C175.009 14.3736 174.836 15.3636 174.836 16.4485C174.836 17.5335 175.009 18.5076 175.349 19.4262C175.688 20.3449 176.156 21.1368 176.759 21.7941C177.363 22.4514 178.079 22.9662 178.909 23.3463C179.739 23.7185 180.644 23.9086 181.624 23.9086H182.258C183.261 23.9086 184.181 23.7185 185.019 23.3463C185.856 22.9741 186.588 22.4514 187.199 21.7941C187.81 21.1368 188.285 20.3449 188.624 19.4262C188.964 18.5076 189.137 17.5176 189.137 16.4485ZM220.493 27.8841H224.302V5.10799H220.493V27.8841ZM248.002 4.92584V21.5882L232.607 5.64651C232.328 5.35349 232.056 5.14759 231.8 5.02088C231.543 4.89417 231.271 4.83081 230.992 4.83081C230.389 4.83081 229.914 5.04463 229.567 5.47228C229.22 5.89993 229.039 6.47804 229.039 7.21454V27.892H232.667V11.2217L248.002 27.3218C248.545 27.8841 249.125 28.1692 249.744 28.1692C250.302 28.1692 250.762 27.9633 251.109 27.5436C251.456 27.1238 251.637 26.5378 251.637 25.7855V4.92584H248.002Z" fill="white"/>
<path d="M9.07406 5.26639H12.8832V17.6681C12.8832 21.2002 12.0007 23.8056 10.2432 25.5004C8.48571 27.1951 5.7024 28.0346 1.9008 28.0346H0V24.059H1.9008C4.44274 24.059 6.27566 23.5443 7.392 22.5227C8.51589 21.5011 9.07406 19.8776 9.07406 17.6681V5.26639ZM36.2133 28.0346H31.6272L29.7264 23.7185H19.7623C19.6718 23.7185 19.5813 23.7185 19.4907 23.6948L17.5598 28.0425H13.2151L22.9227 6.24047C23.1415 5.83658 23.413 5.52773 23.7072 5.29807C24.0014 5.06841 24.3634 4.94962 24.7858 4.94962C25.2082 4.94962 25.5552 5.06841 25.8494 5.29807C26.1435 5.52773 26.3925 5.83658 26.6187 6.24047L36.2057 28.0346H36.2133ZM27.9765 19.743L24.635 12.1404L21.2558 19.743H27.9765ZM50.4466 14.7855H45.408C44.5632 14.7855 43.8994 14.5479 43.4091 14.0648C42.9189 13.5817 42.6775 12.9086 42.6775 12.0295C42.6775 11.1505 42.9189 10.4694 43.3941 9.97841C43.8768 9.48741 44.5557 9.24191 45.4382 9.24191H56.1566V5.26639H45.4382C44.3595 5.26639 43.3941 5.4327 42.5568 5.74947C41.712 6.07417 41.0105 6.51765 40.4373 7.07992C39.864 7.6422 39.4341 8.31535 39.1474 9.09936C38.8533 9.88338 38.7099 10.7308 38.7099 11.6494C38.7099 12.568 38.8683 13.455 39.1776 14.247C39.4869 15.0389 39.9243 15.7279 40.4976 16.2981C41.0633 16.8762 41.7648 17.3197 42.6021 17.6444C43.4318 17.9691 44.3595 18.1274 45.3778 18.1274H50.4542C51.4725 18.1274 52.2645 18.3729 52.8151 18.8639C53.3657 19.3549 53.6373 20.0914 53.6373 21.0734C53.6373 21.9683 53.3657 22.689 52.8151 23.2354C52.2645 23.7819 51.48 24.0511 50.4542 24.0511H39.0494V28.0266H50.4542C51.5931 28.0266 52.5888 27.8603 53.4411 27.5277C54.2935 27.1951 54.995 26.7279 55.5531 26.1339C56.1113 25.54 56.5337 24.8351 56.8128 24.0195C57.0919 23.2038 57.2352 22.3168 57.2352 21.3585C57.2352 19.149 56.6619 17.4939 55.5079 16.4089C54.3538 15.324 52.6718 14.7775 50.4466 14.7775V14.7855ZM78.853 10.0259C79.2151 11.0317 79.3961 12.1562 79.3961 13.4075C79.3961 14.6588 79.2151 15.7596 78.853 16.7732C78.491 17.7869 77.9705 18.658 77.2917 19.3866C76.6128 20.1152 75.7755 20.6854 74.7874 21.0972C73.7993 21.5011 72.6679 21.707 71.4082 21.707H64.6574V28.0346H60.8709V5.26639H71.4082C72.6679 5.26639 73.7918 5.45646 74.7874 5.8445C75.7755 6.23255 76.6128 6.77107 77.2917 7.47589C77.9705 8.1728 78.491 9.02809 78.853 10.0259ZM75.6699 13.5342C75.6699 12.2196 75.2928 11.1742 74.5461 10.3981C73.7993 9.62204 72.7509 9.24191 71.4082 9.24191H64.6574V17.8582H71.4082C72.7509 17.8582 73.7918 17.4622 74.5461 16.6703C75.2928 15.8783 75.6699 14.833 75.6699 13.5342ZM118.958 21.113L125.536 28.0346H120.135L114.614 21.707H109.092V28.0346H105.306V5.26639H115.541C116.779 5.26639 117.895 5.45646 118.875 5.8445C119.856 6.23255 120.686 6.78691 121.365 7.50757C122.043 8.22823 122.564 9.09936 122.926 10.121C123.288 11.1426 123.469 12.2909 123.469 13.5659C123.469 15.4665 123.077 17.0583 122.285 18.3413C121.493 19.6242 120.392 20.5508 118.966 21.113H118.958ZM118.657 17.0267C119.358 16.2426 119.705 15.1102 119.705 13.6292C119.705 12.1483 119.343 11.0475 118.611 10.3269C117.88 9.6062 116.854 9.24983 115.534 9.24983H109.085V18.2066H115.534C116.914 18.2066 117.955 17.8186 118.657 17.0346V17.0267ZM82.8357 16.702C82.8357 22.9424 87.7008 28.0266 93.6823 28.0266H101.097V24.1937H93.6823C90.2804 24.1937 87.4368 21.707 86.7051 18.3888H100.26V14.5558H86.856C87.7536 11.4831 90.4539 9.22607 93.6898 9.22607H101.104V5.38518H93.6898C87.7083 5.38518 82.8432 10.4615 82.8432 16.7099L82.8357 16.702Z" fill="#110F21"/>
</svg>
