<svg width="246" height="23" viewBox="0 0 246 23" fill="none" xmlns="http://www.w3.org/2000/svg">
<g clip-path="url(#clip0_27_833)">
<path d="M246 3H180.228V20.0189H246V3Z" fill="#BD1822"/>
<path d="M216.678 15.3302H220.845V17.3805H216.678C214.695 17.3805 213.244 16.9435 212.327 16.0735C211.41 15.1995 210.95 13.8558 210.95 12.0343V5.63431H212.937V12.0302C212.937 13.1737 213.228 14.0069 213.814 14.5338C214.4 15.0606 215.352 15.3261 216.678 15.3261V15.3302ZM190.004 6.04682C189.331 6.32046 188.745 6.70846 188.249 7.21081C187.754 7.71317 187.368 8.31763 187.093 9.02828C186.817 9.73893 186.676 10.5272 186.676 11.3849C186.676 12.2425 186.813 13.0267 187.093 13.7578C187.368 14.4889 187.754 15.1219 188.249 15.6569C188.745 16.192 189.331 16.6086 190.004 16.919C190.677 17.2253 191.409 17.3805 192.203 17.3805H196.338V15.3302H192.203C191.692 15.3302 191.22 15.2322 190.787 15.0402C190.354 14.8483 189.98 14.5787 189.666 14.2397C189.351 13.9007 189.107 13.4923 188.93 13.0185C188.753 12.5448 188.663 12.0343 188.663 11.4829C188.663 10.9315 188.753 10.4128 188.93 9.94723C189.107 9.48163 189.351 9.08546 189.666 8.75056C189.98 8.41565 190.354 8.15426 190.787 7.96639C191.22 7.77852 191.692 7.68458 192.203 7.68458H196.338V5.63431H192.203C191.409 5.63431 190.677 5.77317 190.004 6.04682ZM208.534 9.05279C208.806 9.75935 208.94 10.5354 208.94 11.389C208.94 12.2425 208.802 13.0308 208.526 13.7619C208.251 14.4929 207.862 15.126 207.37 15.661C206.874 16.1961 206.288 16.6126 205.607 16.923C204.931 17.2294 204.183 17.3846 203.369 17.3846H203.038C202.243 17.3846 201.512 17.2294 200.839 16.923C200.166 16.6167 199.58 16.1961 199.084 15.661C198.589 15.126 198.203 14.497 197.928 13.7619C197.652 13.0308 197.511 12.2385 197.511 11.389C197.511 10.5394 197.648 9.74302 197.928 9.03237C198.203 8.32172 198.589 7.71725 199.084 7.2149C199.58 6.71254 200.166 6.32454 200.839 6.0509C201.512 5.77726 202.243 5.63839 203.038 5.63839H203.369C204.195 5.63839 204.946 5.77726 205.631 6.05907C206.315 6.34088 206.902 6.73296 207.393 7.2394C207.885 7.74584 208.263 8.3503 208.538 9.05687L208.534 9.05279ZM206.953 11.4829C206.953 10.9356 206.866 10.4251 206.685 9.9554C206.504 9.48571 206.26 9.08546 205.942 8.75056C205.623 8.41565 205.245 8.15426 204.805 7.96639C204.364 7.77852 203.888 7.68458 203.365 7.68458H203.034C202.523 7.68458 202.051 7.77852 201.618 7.96639C201.185 8.15426 200.811 8.41565 200.497 8.75056C200.182 9.08546 199.938 9.48163 199.761 9.94723C199.584 10.4128 199.493 10.9234 199.493 11.4829C199.493 12.0424 199.584 12.5448 199.761 13.0185C199.938 13.4923 200.182 13.9007 200.497 14.2397C200.811 14.5787 201.185 14.8442 201.618 15.0402C202.051 15.2322 202.523 15.3302 203.034 15.3302H203.365C203.888 15.3302 204.368 15.2322 204.805 15.0402C205.241 14.8483 205.623 14.5787 205.942 14.2397C206.26 13.9007 206.508 13.4923 206.685 13.0185C206.862 12.5448 206.953 12.0343 206.953 11.4829ZM223.307 17.3805H225.294V5.63431H223.307V17.3805ZM237.655 5.54037V14.1335L229.626 5.91204C229.48 5.76092 229.339 5.65473 229.205 5.58938C229.071 5.52404 228.929 5.49136 228.784 5.49136C228.469 5.49136 228.221 5.60164 228.04 5.82218C227.859 6.04273 227.765 6.34088 227.765 6.72071V17.3846H229.657V8.78731L237.655 17.0905C237.939 17.3805 238.242 17.5275 238.564 17.5275C238.855 17.5275 239.095 17.4213 239.276 17.2049C239.457 16.9884 239.552 16.6862 239.552 16.2982V5.54037H237.655Z" fill="white"/>
<path d="M113.035 5.71601H115.022V12.1119C115.022 13.9334 114.561 15.2771 113.645 16.1511C112.728 17.0252 111.276 17.4581 109.293 17.4581H108.302V15.4078H109.293C110.619 15.4078 111.575 15.1423 112.157 14.6155C112.744 14.0886 113.035 13.2514 113.035 12.1119V5.71601ZM127.19 17.4581H124.798L123.807 15.2322H118.61C118.562 15.2322 118.515 15.2322 118.468 15.2199L117.461 17.4622H115.195L120.258 6.21837C120.372 6.01007 120.514 5.85079 120.667 5.73235C120.821 5.61391 121.009 5.55264 121.23 5.55264C121.45 5.55264 121.631 5.61391 121.784 5.73235C121.938 5.85079 122.068 6.01007 122.186 6.21837L127.186 17.4581H127.19ZM122.894 13.1819L121.151 9.2611L119.389 13.1819H122.894ZM134.614 10.6252H131.986C131.545 10.6252 131.199 10.5027 130.943 10.2536C130.688 10.0044 130.562 9.65727 130.562 9.20392C130.562 8.75057 130.688 8.39933 130.936 8.14611C131.187 7.89289 131.541 7.76628 132.002 7.76628H137.592V5.71601H132.002C131.439 5.71601 130.936 5.80178 130.499 5.96515C130.058 6.1326 129.692 6.36131 129.393 6.65129C129.094 6.94127 128.87 7.28843 128.721 7.69276C128.567 8.0971 128.492 8.53411 128.492 9.00788C128.492 9.48164 128.575 9.93908 128.736 10.3475C128.898 10.7559 129.126 11.1112 129.425 11.4053C129.72 11.7035 130.086 11.9322 130.522 12.0996C130.955 12.2671 131.439 12.3488 131.97 12.3488H134.618C135.149 12.3488 135.562 12.4754 135.849 12.7286C136.137 12.9818 136.278 13.3616 136.278 13.8681C136.278 14.3296 136.137 14.7013 135.849 14.9831C135.562 15.2649 135.153 15.4037 134.618 15.4037H128.669V17.454H134.618C135.212 17.454 135.731 17.3682 136.176 17.1967C136.62 17.0252 136.986 16.7842 137.277 16.4779C137.569 16.1716 137.789 15.8081 137.935 15.3874C138.08 14.9667 138.155 14.5093 138.155 14.0151C138.155 12.8756 137.856 12.022 137.254 11.4625C136.652 10.9029 135.775 10.6211 134.614 10.6211V10.6252ZM149.43 8.17062C149.619 8.68931 149.714 9.26927 149.714 9.91457C149.714 10.5599 149.619 11.1276 149.43 11.6504C149.241 12.1731 148.97 12.6224 148.616 12.9981C148.262 13.3739 147.825 13.668 147.31 13.8803C146.794 14.0886 146.204 14.1948 145.547 14.1948H142.026V17.4581H140.051V5.71601H145.547C146.204 5.71601 146.79 5.81403 147.31 6.01416C147.825 6.21428 148.262 6.49201 148.616 6.8555C148.97 7.21491 149.241 7.65601 149.43 8.17062ZM147.77 9.97992C147.77 9.30194 147.573 8.76283 147.184 8.36257C146.794 7.96232 146.248 7.76628 145.547 7.76628H142.026V12.2099H145.547C146.248 12.2099 146.79 12.0057 147.184 11.5973C147.573 11.1888 147.77 10.6497 147.77 9.97992ZM170.349 13.8885L173.779 17.4581H170.962L168.083 14.1948H165.203V17.4581H163.228V5.71601H168.566C169.212 5.71601 169.794 5.81403 170.305 6.01416C170.817 6.21428 171.25 6.50018 171.604 6.87184C171.958 7.2435 172.229 7.69276 172.418 8.21963C172.607 8.74649 172.701 9.3387 172.701 9.99625C172.701 10.9765 172.497 11.7974 172.084 12.459C171.671 13.1207 171.096 13.5985 170.353 13.8885H170.349ZM170.191 11.7811C170.557 11.3767 170.738 10.7927 170.738 10.0289C170.738 9.26518 170.549 8.69748 170.168 8.32582C169.786 7.95415 169.251 7.77036 168.563 7.77036H165.199V12.3896H168.563C169.282 12.3896 169.825 12.1895 170.191 11.7851V11.7811ZM151.508 11.6136C151.508 14.8319 154.045 17.454 157.165 17.454H161.032V15.4773H157.165C155.391 15.4773 153.907 14.1948 153.526 12.4835H160.596V10.5068H153.605C154.073 8.92211 155.481 7.75811 157.169 7.75811H161.036V5.77727H157.169C154.049 5.77727 151.512 8.39525 151.512 11.6177L151.508 11.6136Z" fill="#110F21"/>
</g>
<path d="M4.81853 5.274C6.2708 5.274 7.39405 5.58034 8.18826 6.19302C8.98248 6.79435 9.37958 7.69635 9.37958 8.89902C9.37958 10.1811 8.96546 11.1342 8.13721 11.7582C7.30895 12.3822 6.2084 12.6942 4.83555 12.6942H3.3549V17H1.73811V5.274H4.81853ZM4.76747 11.4178C5.70918 11.4178 6.42397 11.2363 6.91185 10.8732C7.41107 10.5101 7.66068 9.85775 7.66068 8.91604C7.66068 8.07644 7.41107 7.46943 6.91185 7.09502C6.42397 6.7206 5.72053 6.5334 4.80151 6.5334H3.3549V11.4178H4.76747ZM16.0272 5.06977C17.0143 5.06977 17.8766 5.30804 18.6141 5.78457C19.3629 6.24975 19.9416 6.93618 20.35 7.84385C20.7698 8.75152 20.9797 9.85208 20.9797 11.1455C20.9797 12.4163 20.7698 13.5055 20.35 14.4131C19.9416 15.3208 19.3629 16.0129 18.6141 16.4894C17.8766 16.966 17.0143 17.2042 16.0272 17.2042C15.0401 17.2042 14.1722 16.9716 13.4233 16.5065C12.6859 16.0413 12.1072 15.3548 11.6874 14.4472C11.279 13.5395 11.0747 12.4446 11.0747 11.1625C11.0747 9.90313 11.279 8.81392 11.6874 7.89491C12.1072 6.97589 12.6915 6.27811 13.4404 5.80158C14.1892 5.31371 15.0515 5.06977 16.0272 5.06977ZM16.0272 6.39725C15.0061 6.39725 14.2119 6.78301 13.6446 7.55453C13.0773 8.32605 12.7936 9.52872 12.7936 11.1625C12.7936 12.785 13.0773 13.9763 13.6446 14.7365C14.2232 15.4967 15.0174 15.8768 16.0272 15.8768C18.183 15.8768 19.2608 14.2997 19.2608 11.1455C19.2608 7.98 18.183 6.39725 16.0272 6.39725ZM35.768 5.274L33.3853 17H31.309L29.1476 7.18011L26.9692 17H24.944L22.5613 5.274H24.1441L26.0332 15.5874L28.2967 5.274H30.0156L32.3302 15.5874L34.2873 5.274H35.768ZM44.4599 5.274L44.2727 6.56743H39.7286V10.3967H43.677V11.6901H39.7286V15.7066H44.596V17H38.1118V5.274H44.4599ZM50.871 12.0305H49.05V17H47.4332V5.274H50.5136C51.9772 5.274 53.0835 5.55197 53.8323 6.10792C54.5925 6.66387 54.9725 7.49213 54.9725 8.59268C54.9725 9.40958 54.7626 10.0733 54.3428 10.5839C53.923 11.0945 53.2877 11.4802 52.4367 11.7412L55.6022 17H53.6791L50.871 12.0305ZM50.6838 10.7881C51.5347 10.7881 52.1758 10.6179 52.6069 10.2775C53.0381 9.92582 53.2536 9.3642 53.2536 8.59268C53.2536 7.86654 53.0324 7.34463 52.5899 7.02694C52.1588 6.69791 51.461 6.5334 50.4966 6.5334H49.05V10.7881H50.6838ZM64.2992 5.274L64.112 6.56743H59.568V10.3967H63.5163V11.6901H59.568V15.7066H64.4354V17H57.9512V5.274H64.2992ZM69.7232 5.274C71.4932 5.274 72.9114 5.68813 73.9779 6.51638C75.0558 7.33328 75.5947 8.85363 75.5947 11.0774C75.5947 13.2445 75.0558 14.7762 73.9779 15.6725C72.9114 16.5575 71.6123 17 70.0806 17H67.2725V5.274H69.7232ZM68.8893 6.56743V15.7236H70.1997C71.289 15.7236 72.1739 15.3889 72.8547 14.7195C73.5354 14.0501 73.8758 12.8361 73.8758 11.0774C73.8758 9.84073 73.7 8.89335 73.3482 8.23528C72.9965 7.56587 72.5484 7.12338 72.0037 6.90781C71.4591 6.68089 70.8181 6.56743 70.0806 6.56743H68.8893ZM88.33 10.8051C89.1356 10.9413 89.788 11.2249 90.2872 11.6561C90.7864 12.0872 91.036 12.7566 91.036 13.6643C91.036 15.8881 89.4873 17 86.3899 17H83.1563V5.274H85.9303C87.4167 5.274 88.5513 5.51794 89.3341 6.00581C90.1283 6.49369 90.5254 7.23684 90.5254 8.23528C90.5254 8.91604 90.3099 9.48333 89.8787 9.93717C89.4589 10.391 88.9427 10.6803 88.33 10.8051ZM84.7731 6.55041V10.2435H86.543C87.2238 10.2435 87.7797 10.079 88.2109 9.74996C88.6534 9.42093 88.8746 8.95575 88.8746 8.35442C88.8746 7.67366 88.642 7.2028 88.1768 6.94185C87.723 6.68089 87.0309 6.55041 86.1005 6.55041H84.7731ZM86.3899 15.7066C87.3429 15.7066 88.0691 15.5647 88.5683 15.2811C89.0788 14.9974 89.3341 14.4585 89.3341 13.6643C89.3341 12.8928 89.0902 12.3368 88.6023 11.9965C88.1144 11.6561 87.4791 11.4859 86.6962 11.4859H84.7731V15.7066H86.3899ZM100.882 5.274L97.1038 12.49V17H95.47V12.507L91.6918 5.274H93.4788L96.338 11.0774L99.1971 5.274H100.882Z" fill="#231F20"/>
<defs>
<clipPath id="clip0_27_833">
<rect width="137.698" height="17.0189" fill="white" transform="translate(108.302 3)"/>
</clipPath>
</defs>
</svg>
