<svg width="24" height="22" viewBox="0 0 24 22" fill="none" xmlns="http://www.w3.org/2000/svg">
<path d="M1.10866 19.8015C0.801018 20.334 0.983298 21.015 1.51579 21.3227C2.04829 21.6303 2.72936 21.448 3.037 20.9155L1.10866 19.8015ZM21.3631 20.9157C21.6707 21.4482 22.3518 21.6305 22.8843 21.3229C23.4168 21.0153 23.5991 20.3342 23.2915 19.8017L21.3631 20.9157ZM17.7676 7.83245C17.7676 10.9073 15.2749 13.4 12.2 13.4V15.627C16.5048 15.627 19.9946 12.1373 19.9946 7.83245H17.7676ZM12.2 13.4C9.12511 13.4 6.63242 10.9073 6.63242 7.83245H4.4054C4.4054 12.1373 7.89516 15.627 12.2 15.627V13.4ZM6.63242 7.83245C6.63242 4.75757 9.12511 2.26488 12.2 2.26488V0.0378536C7.89516 0.0378536 4.4054 3.52761 4.4054 7.83245H6.63242ZM12.2 2.26488C15.2749 2.26488 17.7676 4.75757 17.7676 7.83245H19.9946C19.9946 3.52761 16.5048 0.0378536 12.2 0.0378536V2.26488ZM3.037 20.9155C3.966 19.3075 5.30181 17.9723 6.91022 17.044L5.797 15.1152C3.85009 16.2388 2.23317 17.8551 1.10866 19.8015L3.037 20.9155ZM6.91022 17.044C8.51865 16.1157 10.3429 15.627 12.2 15.627L12.2 13.4C9.9521 13.4 7.74389 13.9915 5.797 15.1152L6.91022 17.044ZM12.2 15.627C14.0571 15.6271 15.8816 16.1158 17.4899 17.0441L18.6032 15.1153C16.6563 13.9916 14.4479 13.4 12.2 13.4L12.2 15.627ZM17.4899 17.0441C19.0983 17.9724 20.4341 19.3077 21.3631 20.9157L23.2915 19.8017C22.167 17.8553 20.5501 16.239 18.6032 15.1153L17.4899 17.0441Z" fill="#C01823"/>
</svg>
