<svg width="143" height="18" viewBox="0 0 143 18" fill="none" xmlns="http://www.w3.org/2000/svg">
<path d="M142.567 0.965027H74.8247V17.9836H142.567V0.965027Z" fill="#C01823"/>
<path d="M112.367 13.295H116.658V15.3452H112.367C110.325 15.3452 108.829 14.9082 107.885 14.0383C106.941 13.1643 106.467 11.8206 106.467 9.9991V3.59928H108.513V9.99502C108.513 11.1386 108.813 11.9717 109.417 12.4986C110.021 13.0254 111.001 13.2909 112.367 13.2909V13.295ZM84.8941 4.01178C84.2012 4.28542 83.5974 4.67341 83.0869 5.17575C82.5763 5.6781 82.1792 6.28255 81.8956 6.99319C81.6119 7.70382 81.466 8.49206 81.466 9.34972C81.466 10.2074 81.6079 10.9915 81.8956 11.7226C82.1792 12.4537 82.5763 13.0867 83.0869 13.6217C83.5974 14.1567 84.2012 14.5733 84.8941 14.8837C85.5869 15.19 86.3406 15.3452 87.1591 15.3452H91.4178V13.295H87.1591C86.6324 13.295 86.1461 13.197 85.7004 13.005C85.2547 12.8131 84.8698 12.5435 84.5456 12.2045C84.2214 11.8655 83.9702 11.4571 83.7878 10.9834C83.6055 10.5096 83.5123 9.9991 83.5123 9.44774C83.5123 8.89639 83.6055 8.3777 83.7878 7.91211C83.9702 7.44652 84.2214 7.05036 84.5456 6.71547C84.8698 6.38057 85.2547 6.11919 85.7004 5.93132C86.1461 5.74345 86.6324 5.64951 87.1591 5.64951H91.4178V3.59928H87.1591C86.3406 3.59928 85.5869 3.73814 84.8941 4.01178ZM103.979 7.01769C104.259 7.72424 104.396 8.50023 104.396 9.35381C104.396 10.2074 104.255 10.9956 103.971 11.7267C103.687 12.4577 103.286 13.0908 102.78 13.6258C102.269 14.1608 101.665 14.5774 100.964 14.8878C100.267 15.1941 99.4976 15.3493 98.6588 15.3493H98.3184C97.4999 15.3493 96.7462 15.1941 96.0534 14.8878C95.3605 14.5815 94.7567 14.1608 94.2461 13.6258C93.7356 13.0908 93.3385 12.4618 93.0548 11.7267C92.7712 10.9956 92.6253 10.2033 92.6253 9.35381C92.6253 8.50431 92.7672 7.70791 93.0548 6.99727C93.3385 6.28663 93.7356 5.68219 94.2461 5.17984C94.7567 4.67749 95.3605 4.2895 96.0534 4.01586C96.7462 3.74223 97.4999 3.60337 98.3184 3.60337H98.6588C99.5097 3.60337 100.284 3.74223 100.989 4.02403C101.694 4.30584 102.298 4.69791 102.804 5.20434C103.311 5.71077 103.7 6.31522 103.983 7.02178L103.979 7.01769ZM102.35 9.44774C102.35 8.90047 102.261 8.38996 102.075 7.92028C101.888 7.45061 101.637 7.05036 101.309 6.71547C100.981 6.38057 100.592 6.11919 100.138 5.93132C99.684 5.74345 99.1937 5.64951 98.6548 5.64951H98.3144C97.7876 5.64951 97.3014 5.74345 96.8557 5.93132C96.4099 6.11919 96.025 6.38057 95.7008 6.71547C95.3767 7.05036 95.1254 7.44652 94.9431 7.91211C94.7607 8.3777 94.6675 8.88822 94.6675 9.44774C94.6675 10.0073 94.7607 10.5096 94.9431 10.9834C95.1254 11.4571 95.3767 11.8655 95.7008 12.2045C96.025 12.5435 96.4099 12.809 96.8557 13.005C97.3014 13.197 97.7876 13.295 98.3144 13.295H98.6548C99.1937 13.295 99.688 13.197 100.138 13.005C100.588 12.8131 100.981 12.5435 101.309 12.2045C101.637 11.8655 101.892 11.4571 102.075 10.9834C102.257 10.5096 102.35 9.9991 102.35 9.44774ZM119.194 15.3452H121.241V3.59928H119.194V15.3452ZM133.972 3.50535V12.0983L125.702 3.877C125.552 3.72589 125.406 3.6197 125.268 3.55436C125.131 3.48901 124.985 3.45634 124.835 3.45634C124.511 3.45634 124.255 3.56661 124.069 3.78715C123.883 4.0077 123.785 4.30584 123.785 4.68566V15.3493H125.734V6.75222L133.972 15.0552C134.264 15.3452 134.576 15.4922 134.908 15.4922C135.208 15.4922 135.455 15.3861 135.642 15.1696C135.828 14.9531 135.925 14.6509 135.925 14.2629V3.50535H133.972Z" fill="white"/>
<path d="M5.6202 3.68097H7.66647V10.0767C7.66647 11.8982 7.19239 13.2419 6.24826 14.1159C5.30414 14.9899 3.80894 15.4228 1.76672 15.4228H0.745605V13.3726H1.76672C3.13225 13.3726 4.11689 13.1071 4.71659 12.5803C5.32035 12.0534 5.6202 11.2162 5.6202 10.0767V3.68097ZM20.1994 15.4228H17.7358L16.7147 13.197H11.3619C11.3133 13.197 11.2647 13.197 11.2161 13.1847L10.1787 15.4269H7.84476L13.0597 4.18331C13.1772 3.97502 13.3231 3.81574 13.4811 3.6973C13.6392 3.57886 13.8337 3.5176 14.0606 3.5176C14.2875 3.5176 14.4739 3.57886 14.6319 3.6973C14.7899 3.81574 14.9237 3.97502 15.0452 4.18331L20.1954 15.4228H20.1994ZM15.7746 11.1467L13.9795 7.22598L12.1642 11.1467H15.7746ZM27.8456 8.59008H25.1388C24.685 8.59008 24.3284 8.46755 24.065 8.21842C23.8017 7.96929 23.672 7.62214 23.672 7.1688C23.672 6.71547 23.8017 6.36423 24.0569 6.11102C24.3163 5.8578 24.6809 5.73119 25.155 5.73119H30.913V3.68097H25.155C24.5756 3.68097 24.0569 3.76673 23.6072 3.9301C23.1533 4.09755 22.7765 4.32626 22.4685 4.61623C22.1606 4.9062 21.9296 5.25335 21.7756 5.65768C21.6176 6.06201 21.5406 6.49901 21.5406 6.97277C21.5406 7.44652 21.6257 7.90395 21.7918 8.31236C21.958 8.72077 22.193 9.07609 22.501 9.37014C22.8049 9.66829 23.1817 9.897 23.6315 10.0644C24.0772 10.2319 24.5756 10.3136 25.1226 10.3136H27.8496C28.3967 10.3136 28.8221 10.4402 29.1179 10.6934C29.4137 10.9466 29.5596 11.3264 29.5596 11.8329C29.5596 12.2944 29.4137 12.666 29.1179 12.9478C28.8221 13.2296 28.4007 13.3685 27.8496 13.3685H21.723V15.4187H27.8496C28.4615 15.4187 28.9964 15.333 29.4542 15.1614C29.9121 14.9899 30.289 14.7489 30.5888 14.4426C30.8887 14.1363 31.1156 13.7728 31.2655 13.3522C31.4154 12.9315 31.4924 12.4741 31.4924 11.9799C31.4924 10.8404 31.1845 9.98685 30.5645 9.42732C29.9445 8.8678 29.0409 8.58599 27.8456 8.58599V8.59008ZM43.1055 6.13552C43.3 6.65421 43.3973 7.23415 43.3973 7.87944C43.3973 8.52473 43.3 9.09242 43.1055 9.61519C42.911 10.138 42.6314 10.5872 42.2668 10.963C41.9021 11.3387 41.4523 11.6327 40.9215 11.8451C40.3907 12.0534 39.7829 12.1596 39.1062 12.1596H35.4796V15.4228H33.4455V3.68097H39.1062C39.7829 3.68097 40.3866 3.77899 40.9215 3.97911C41.4523 4.17923 41.9021 4.45695 42.2668 4.82044C42.6314 5.17984 42.911 5.62092 43.1055 6.13552ZM41.3956 7.94479C41.3956 7.26682 41.193 6.72772 40.7918 6.32748C40.3907 5.92723 39.8274 5.73119 39.1062 5.73119H35.4796V10.1747H39.1062C39.8274 10.1747 40.3866 9.97051 40.7918 9.5621C41.193 9.15369 41.3956 8.61458 41.3956 7.94479ZM64.6502 11.8533L68.1835 15.4228H65.2823L62.3162 12.1596H59.3501V15.4228H57.316V3.68097H62.8146C63.4791 3.68097 64.0788 3.77899 64.6056 3.97911C65.1324 4.17923 65.5781 4.46512 65.9428 4.83677C66.3074 5.20843 66.587 5.65768 66.7815 6.18453C66.976 6.71138 67.0733 7.30358 67.0733 7.96112C67.0733 8.94131 66.8626 9.76222 66.4371 10.4238C66.0117 11.0855 65.4201 11.5633 64.6542 11.8533H64.6502ZM64.4881 9.74588C64.8649 9.34156 65.0513 8.75753 65.0513 7.9938C65.0513 7.23007 64.8568 6.66237 64.4638 6.29072C64.0707 5.91906 63.5197 5.73528 62.8105 5.73528H59.3461V10.3544H62.8105C63.5521 10.3544 64.1112 10.1543 64.4881 9.74997V9.74588ZM45.245 9.57843C45.245 12.7967 47.8586 15.4187 51.0718 15.4187H55.055V13.442H51.0718C49.2444 13.442 47.7167 12.1596 47.3237 10.4484H54.6052V8.47164H47.4047C47.8869 6.887 49.3375 5.72303 51.0759 5.72303H55.059V3.74223H51.0759C47.8626 3.74223 45.2491 6.36015 45.2491 9.58252L45.245 9.57843Z" fill="white"/>
</svg>
