<svg width="29" height="29" viewBox="0 0 29 29" fill="none" xmlns="http://www.w3.org/2000/svg">
<path d="M27.085 14.1347C26.158 14.1347 25.3786 14.8273 25.2734 15.746C24.5934 21.6631 19.2058 25.9396 13.26 25.2758C8.29004 24.7216 4.27974 20.7122 3.72509 15.7421C3.06125 9.79632 7.33621 4.40612 13.2547 3.72668C14.1734 3.62092 14.866 2.84254 14.866 1.91501C14.866 1.39446 14.6428 0.896334 14.2533 0.549791C13.8624 0.201785 13.3404 0.0380174 12.8199 0.0969932C5.16242 0.985042 -0.455798 7.72047 0.0291613 15.4317C0.485852 22.6925 6.30536 28.5131 13.5666 28.9708C13.878 28.9903 14.1875 29 14.4951 29C21.8124 29 28.051 23.5294 28.9035 16.1808C28.9634 15.6608 28.7982 15.1383 28.4502 14.7474C28.1032 14.3579 27.606 14.1347 27.085 14.1347Z" fill="#3A3A3A"/>
<path d="M27.6597 0H20.4891C19.9905 0 19.5065 0.208121 19.1629 0.569774C18.8144 0.936789 18.6375 1.41834 18.6643 1.92524C18.715 2.89566 19.5528 3.65552 20.5719 3.65552H22.7599L14.2416 12.1739C13.5291 12.8865 13.5291 14.046 14.2416 14.7586C14.5979 15.1149 15.0658 15.2928 15.5337 15.2928C16.0016 15.2928 16.47 15.1149 16.8263 14.7586L25.3445 6.24022V8.42817C25.3445 9.44734 26.1049 10.2852 27.0748 10.3364C27.5856 10.3602 28.0627 10.1853 28.4302 9.83677C28.7924 9.49315 29 9.01013 29 8.51103V1.34036C29 0.601456 28.399 0 27.6597 0Z" fill="#3A3A3A"/>
</svg>
