<svg width="32" height="32" viewBox="0 0 32 32" fill="none" xmlns="http://www.w3.org/2000/svg">
<path d="M25.8995 6.10047C23.2552 3.45629 19.7395 2 16 2C12.2605 2 8.74477 3.45629 6.10047 6.10047C3.45629 8.74477 2 12.2605 2 16C2 19.7395 3.45629 23.2552 6.10047 25.8995C8.74477 28.5437 12.2605 30 16 30C19.7395 30 23.2552 28.5437 25.8995 25.8995C28.5437 23.2552 30 19.7395 30 16C30 12.2605 28.5437 8.74477 25.8995 6.10047ZM16 28.268C9.23537 28.268 3.73196 22.7646 3.73196 16C3.73196 9.23537 9.23537 3.73196 16 3.73196C22.7646 3.73196 28.268 9.23537 28.268 16C28.268 22.7646 22.7646 28.268 16 28.268Z" fill="white"/>
<path d="M12 21L22 16L12 11V21Z" fill="white"/>
</svg>
